<svg width="518" height="358" viewBox="0 0 518 358" fill="none" xmlns="http://www.w3.org/2000/svg">
<g filter="url(#filter0_d)">
<path d="M169.74 223L252 337.5H212L169.74 277.736L131 337.5H90L169.74 223Z" fill="#172B39"/>
<path d="M168.481 276.92L130.185 336H92.8725L169.759 225.597L249.076 336H212.776L170.965 276.87L169.686 275.061L168.481 276.92Z" stroke="#41632F" stroke-width="3"/>
</g>
<g filter="url(#filter1_d)">
<path d="M170.739 91L251.5 205.5H212.5L170.739 145.736L131 205.5H90L170.739 91Z" fill="#172B39"/>
<path d="M169.49 144.905L130.196 204H92.8931L170.74 93.6027L248.606 204H213.282L171.969 144.876L170.709 143.073L169.49 144.905Z" stroke="#41632F" stroke-width="3"/>
</g>
<g filter="url(#filter2_d)">
<path d="M280.712 172.976V191.072C280.712 195.488 280.44 198.72 279.896 200.768C279.384 202.784 278.216 204.224 276.392 205.088C274.568 205.952 271.592 206.384 267.464 206.384C263.336 206.384 260.36 205.952 258.536 205.088C256.712 204.224 255.528 202.784 254.984 200.768C254.472 198.72 254.216 195.488 254.216 191.072V172.976H262.568V192.848C262.568 195.12 262.648 196.688 262.808 197.552C262.968 198.416 263.368 198.992 264.008 199.28C264.648 199.568 265.8 199.712 267.464 199.712C269.128 199.712 270.28 199.568 270.92 199.28C271.56 198.992 271.96 198.416 272.12 197.552C272.28 196.688 272.36 195.12 272.36 192.848V172.976H280.712ZM299.553 206.384C294.881 206.384 290.737 206.112 287.121 205.568V199.04C291.025 199.424 294.321 199.616 297.009 199.616C298.577 199.616 299.777 199.552 300.609 199.424C301.441 199.296 302.033 199.088 302.385 198.8C302.705 198.544 302.897 198.24 302.961 197.888C303.057 197.504 303.105 196.976 303.105 196.304C303.105 195.504 303.041 194.928 302.913 194.576C302.785 194.224 302.529 193.984 302.145 193.856C301.761 193.696 301.089 193.552 300.129 193.424L294.033 192.656C291.857 192.4 290.193 191.856 289.041 191.024C287.921 190.16 287.153 189.056 286.737 187.712C286.353 186.368 286.161 184.688 286.161 182.672C286.161 179.824 286.689 177.664 287.745 176.192C288.801 174.72 290.209 173.76 291.969 173.312C293.761 172.832 296.033 172.592 298.785 172.592C300.801 172.592 302.641 172.672 304.305 172.832C306.001 172.992 307.841 173.248 309.825 173.6V179.984C306.017 179.568 302.897 179.36 300.465 179.36C297.905 179.36 296.241 179.552 295.473 179.936C295.057 180.128 294.785 180.4 294.657 180.752C294.561 181.104 294.513 181.6 294.513 182.24C294.513 183.04 294.561 183.616 294.657 183.968C294.785 184.288 295.025 184.528 295.377 184.688C295.761 184.816 296.417 184.944 297.345 185.072L304.353 185.936C305.761 186.096 306.913 186.384 307.809 186.8C308.737 187.216 309.505 187.92 310.113 188.912C311.041 190.288 311.505 192.48 311.505 195.488C311.505 198.624 311.009 200.992 310.017 202.592C309.025 204.16 307.697 205.184 306.033 205.664C304.369 206.144 302.209 206.384 299.553 206.384ZM323.607 206V180.08H314.487V172.976H341.127V180.08H331.959V206H323.607ZM363.828 206L359.508 194.432H353.7V206H345.348V172.976H361.188C364.228 172.976 366.516 173.408 368.052 174.272C369.62 175.104 370.644 176.272 371.124 177.776C371.636 179.248 371.892 181.232 371.892 183.728C371.892 186.032 371.588 188.032 370.98 189.728C370.404 191.424 369.236 192.656 367.476 193.424L372.564 206H363.828ZM358.02 187.808C359.748 187.808 360.964 187.712 361.668 187.52C362.404 187.328 362.884 186.976 363.108 186.464C363.332 185.92 363.444 185.024 363.444 183.776C363.444 182.496 363.348 181.6 363.156 181.088C362.964 180.544 362.5 180.176 361.764 179.984C361.06 179.792 359.844 179.696 358.116 179.696H353.7V187.808H358.02ZM398.758 206L396.79 199.76H385.03L383.158 206H374.806L385.366 172.976H396.694L407.254 206H398.758ZM390.982 180.368H390.742L386.95 192.992H394.822L390.982 180.368ZM411.16 206V172.976H419.512V198.896H432.616V206H411.16ZM437.127 206V172.976H445.479V206H437.127ZM473.242 206L471.274 199.76H459.514L457.642 206H449.29L459.85 172.976H471.178L481.738 206H473.242ZM465.466 180.368H465.226L461.434 192.992H469.306L465.466 180.368ZM505.181 206L493.757 187.136H493.517V206H485.549V172.976H494.141L504.749 190.112H504.989V172.976H513.005V206H505.181Z" fill="#172B39"/>
</g>
<g filter="url(#filter3_d)">
<path d="M231.504 271V237.976H254.928V244.744H239.856V250.936H252.624V257.704H239.856V264.232H254.928V271H231.504ZM273.131 271.384C268.459 271.384 264.315 271.112 260.699 270.568V264.04C264.603 264.424 267.899 264.616 270.587 264.616C272.155 264.616 273.355 264.552 274.187 264.424C275.019 264.296 275.611 264.088 275.963 263.8C276.283 263.544 276.475 263.24 276.539 262.888C276.635 262.504 276.683 261.976 276.683 261.304C276.683 260.504 276.619 259.928 276.491 259.576C276.363 259.224 276.107 258.984 275.723 258.856C275.339 258.696 274.667 258.552 273.707 258.424L267.611 257.656C265.435 257.4 263.771 256.856 262.619 256.024C261.499 255.16 260.731 254.056 260.315 252.712C259.931 251.368 259.739 249.688 259.739 247.672C259.739 244.824 260.267 242.664 261.323 241.192C262.379 239.72 263.787 238.76 265.547 238.312C267.339 237.832 269.611 237.592 272.363 237.592C274.379 237.592 276.219 237.672 277.883 237.832C279.579 237.992 281.419 238.248 283.403 238.6V244.984C279.595 244.568 276.475 244.36 274.043 244.36C271.483 244.36 269.819 244.552 269.051 244.936C268.635 245.128 268.363 245.4 268.235 245.752C268.139 246.104 268.091 246.6 268.091 247.24C268.091 248.04 268.139 248.616 268.235 248.968C268.363 249.288 268.603 249.528 268.955 249.688C269.339 249.816 269.995 249.944 270.923 250.072L277.931 250.936C279.339 251.096 280.491 251.384 281.387 251.8C282.315 252.216 283.083 252.92 283.691 253.912C284.619 255.288 285.083 257.48 285.083 260.488C285.083 263.624 284.587 265.992 283.595 267.592C282.603 269.16 281.275 270.184 279.611 270.664C277.947 271.144 275.787 271.384 273.131 271.384ZM290.705 271V237.976H299.057V271H290.705ZM319.044 258.04V251.704H331.38V270.28C329.716 270.6 327.796 270.856 325.62 271.048C323.476 271.272 321.588 271.384 319.956 271.384C315.7 271.384 312.548 270.952 310.5 270.088C308.452 269.192 307.044 267.592 306.276 265.288C305.508 262.952 305.124 259.352 305.124 254.488C305.124 249.944 305.508 246.504 306.276 244.168C307.076 241.8 308.516 240.12 310.596 239.128C312.676 238.104 315.78 237.592 319.908 237.592C322.276 237.592 324.628 237.736 326.964 238.024C329.3 238.312 330.724 238.536 331.236 238.696V245.032C327.652 244.584 324.9 244.36 322.98 244.36C319.812 244.36 317.636 244.536 316.452 244.888C315.3 245.208 314.532 246.024 314.148 247.336C313.764 248.648 313.572 251.032 313.572 254.488C313.572 257.624 313.716 259.88 314.004 261.256C314.292 262.6 314.884 263.528 315.78 264.04C316.708 264.552 318.212 264.808 320.292 264.808C321.444 264.808 322.548 264.76 323.604 264.664V258.04H319.044ZM357.634 271L346.21 252.136H345.97V271H338.002V237.976H346.594L357.202 255.112H357.442V237.976H365.458V271H357.634Z" fill="#172B39"/>
</g>
<g filter="url(#filter4_d)">
<path d="M272.984 337L268.664 325.432H262.856V337H254.504V303.976H270.344C273.384 303.976 275.672 304.408 277.208 305.272C278.776 306.104 279.8 307.272 280.28 308.776C280.792 310.248 281.048 312.232 281.048 314.728C281.048 317.032 280.744 319.032 280.136 320.728C279.56 322.424 278.392 323.656 276.632 324.424L281.72 337H272.984ZM267.176 318.808C268.904 318.808 270.12 318.712 270.824 318.52C271.56 318.328 272.04 317.976 272.264 317.464C272.488 316.92 272.6 316.024 272.6 314.776C272.6 313.496 272.504 312.6 272.312 312.088C272.12 311.544 271.656 311.176 270.92 310.984C270.216 310.792 269 310.696 267.272 310.696H262.856V318.808H267.176ZM309.066 336.568C307.978 336.792 306.602 336.984 304.938 337.144C303.306 337.304 301.77 337.384 300.33 337.384C296.17 337.384 293.098 336.872 291.114 335.848C289.13 334.824 287.818 333.16 287.178 330.856C286.538 328.552 286.218 325.096 286.218 320.488C286.218 315.944 286.538 312.52 287.178 310.216C287.85 307.912 289.178 306.232 291.162 305.176C293.146 304.12 296.202 303.592 300.33 303.592C301.77 303.592 303.29 303.688 304.89 303.88C306.49 304.04 307.818 304.248 308.874 304.504V310.84C305.61 310.52 303.45 310.36 302.394 310.36C299.77 310.36 297.962 310.568 296.97 310.984C295.978 311.368 295.338 312.2 295.05 313.48C294.794 314.728 294.666 317.064 294.666 320.488C294.666 323.912 294.794 326.264 295.05 327.544C295.338 328.792 295.978 329.624 296.97 330.04C297.962 330.424 299.77 330.616 302.394 330.616C304.762 330.616 306.986 330.456 309.066 330.136V336.568ZM333.461 337V324.04H322.901V337H314.549V303.976H322.901V316.84H333.461V303.976H341.813V337H333.461ZM348.627 337V303.976H356.979V337H348.627ZM370.294 337V311.08H361.174V303.976H387.814V311.08H378.646V337H370.294ZM392.035 337V303.976H415.459V310.744H400.387V316.936H413.155V323.704H400.387V330.232H415.459V337H392.035ZM443.551 336.568C442.463 336.792 441.087 336.984 439.423 337.144C437.791 337.304 436.255 337.384 434.815 337.384C430.655 337.384 427.583 336.872 425.599 335.848C423.615 334.824 422.303 333.16 421.663 330.856C421.023 328.552 420.703 325.096 420.703 320.488C420.703 315.944 421.023 312.52 421.663 310.216C422.335 307.912 423.663 306.232 425.647 305.176C427.631 304.12 430.687 303.592 434.815 303.592C436.255 303.592 437.775 303.688 439.375 303.88C440.975 304.04 442.303 304.248 443.359 304.504V310.84C440.095 310.52 437.935 310.36 436.879 310.36C434.255 310.36 432.447 310.568 431.455 310.984C430.463 311.368 429.823 312.2 429.535 313.48C429.279 314.728 429.151 317.064 429.151 320.488C429.151 323.912 429.279 326.264 429.535 327.544C429.823 328.792 430.463 329.624 431.455 330.04C432.447 330.424 434.255 330.616 436.879 330.616C439.247 330.616 441.471 330.456 443.551 330.136V336.568ZM455.513 337V311.08H446.393V303.976H473.033V311.08H463.865V337H455.513ZM489.35 337.384C484.678 337.384 480.534 337.112 476.918 336.568V330.04C480.822 330.424 484.118 330.616 486.806 330.616C488.374 330.616 489.574 330.552 490.406 330.424C491.238 330.296 491.83 330.088 492.182 329.8C492.502 329.544 492.694 329.24 492.758 328.888C492.854 328.504 492.902 327.976 492.902 327.304C492.902 326.504 492.838 325.928 492.71 325.576C492.582 325.224 492.326 324.984 491.942 324.856C491.558 324.696 490.886 324.552 489.926 324.424L483.83 323.656C481.654 323.4 479.99 322.856 478.838 322.024C477.718 321.16 476.95 320.056 476.534 318.712C476.15 317.368 475.958 315.688 475.958 313.672C475.958 310.824 476.486 308.664 477.542 307.192C478.598 305.72 480.006 304.76 481.766 304.312C483.558 303.832 485.83 303.592 488.582 303.592C490.598 303.592 492.438 303.672 494.102 303.832C495.798 303.992 497.638 304.248 499.622 304.6V310.984C495.814 310.568 492.694 310.36 490.262 310.36C487.702 310.36 486.038 310.552 485.27 310.936C484.854 311.128 484.582 311.4 484.454 311.752C484.358 312.104 484.31 312.6 484.31 313.24C484.31 314.04 484.358 314.616 484.454 314.968C484.582 315.288 484.822 315.528 485.174 315.688C485.558 315.816 486.214 315.944 487.142 316.072L494.15 316.936C495.558 317.096 496.71 317.384 497.606 317.8C498.534 318.216 499.302 318.92 499.91 319.912C500.838 321.288 501.302 323.48 501.302 326.488C501.302 329.624 500.806 331.992 499.814 333.592C498.822 335.16 497.494 336.184 495.83 336.664C494.166 337.144 492.006 337.384 489.35 337.384Z" fill="#172B39"/>
</g>
<g filter="url(#filter5_d)">
<path fill-rule="evenodd" clip-rule="evenodd" d="M120 226V269L150.383 268.983C179.941 268.967 193.468 268.276 203.522 266.272C210.104 264.959 219.024 259.584 221.525 255.424C225.677 248.519 227.289 226.129 224.862 209.095C223.42 198.973 221.447 194.905 216.198 191.224C206.828 184.652 194.365 183.07 151.662 183.03L120 183V226ZM199.132 185.822C207.855 187.514 214.922 190.625 218.217 194.225C222.706 199.126 224.046 206.178 224.094 225.149C224.16 251.34 221.859 257.857 210.836 262.712C201.405 266.866 195.149 267.477 157.419 267.927H121.559V226L121.763 184.082H157.419C183.752 184.392 193.956 184.818 199.132 185.822ZM154.221 201.358C153.693 201.72 153.261 213.118 153.261 226.686V251.356L167.937 250.926C191.112 250.244 191.626 249.703 191.626 226C191.626 202.443 190.903 201.653 168.807 201.063C161.312 200.863 154.749 200.996 154.221 201.358ZM185.132 203.396C189.234 204.857 190.347 209.681 190.347 226C190.347 242.429 189.238 247.142 185.021 248.644C183.552 249.167 176.237 249.65 168.765 249.718L155.18 249.842L154.839 226.864C154.651 214.227 154.811 203.345 155.192 202.683C155.755 201.705 158.402 201.573 169.229 201.981C176.569 202.258 183.725 202.895 185.132 203.396Z" fill="#71A643"/>
<path d="M118.5 269V270.501L120.001 270.5L150.384 270.483C179.921 270.467 193.594 269.781 203.815 267.743L203.815 267.743C207.325 267.043 211.364 265.288 214.828 263.2C218.249 261.139 221.366 258.6 222.811 256.197C223.981 254.251 224.901 251.358 225.608 247.974C226.322 244.556 226.844 240.508 227.157 236.165C227.782 227.485 227.577 217.52 226.347 208.883C225.62 203.783 224.742 200.048 223.308 197.09C221.846 194.075 219.85 191.953 217.06 189.996L217.06 189.996C212.111 186.525 206.395 184.43 196.619 183.189C186.888 181.954 173.007 181.55 151.664 181.53L120.001 181.5L118.5 181.499V183V226V269ZM123.059 226L123.256 185.582H157.41C183.807 185.893 193.838 186.323 198.846 187.294L198.989 186.555L198.846 187.294C207.48 188.969 214.149 192.002 217.111 195.238L217.111 195.238C221.146 199.643 222.545 206.069 222.594 225.152C222.627 238.282 222.054 246.203 220.209 251.432C219.304 253.996 218.102 255.877 216.526 257.398C214.935 258.933 212.898 260.164 210.231 261.339L210.231 261.339C201.141 265.343 195.234 265.975 157.41 266.427H123.059V226.004V226ZM151.761 251.356V252.901L153.305 252.856L167.981 252.425C173.746 252.255 178.227 252.093 181.647 251.559C185.069 251.024 187.705 250.08 189.559 248.129C191.408 246.184 192.25 243.478 192.673 239.978C193.096 236.475 193.126 231.898 193.126 226C193.126 220.134 193.083 215.571 192.657 212.067C192.231 208.57 191.399 205.863 189.609 203.906C187.804 201.934 185.245 200.963 181.939 200.416C178.643 199.871 174.345 199.711 168.847 199.564C165.082 199.463 161.543 199.446 158.871 199.5C157.538 199.527 156.403 199.572 155.557 199.635C155.137 199.667 154.764 199.704 154.462 199.751C154.313 199.774 154.156 199.803 154.007 199.842C153.902 199.87 153.632 199.943 153.373 200.12C153.036 200.352 152.879 200.655 152.83 200.753C152.761 200.891 152.716 201.024 152.687 201.12C152.628 201.316 152.584 201.535 152.549 201.746C152.476 202.178 152.412 202.753 152.354 203.431C152.236 204.798 152.131 206.709 152.044 209.013C151.869 213.627 151.761 219.889 151.761 226.686V251.356Z" stroke="#71A643" stroke-width="3"/>
</g>
<line x1="114" y1="273.5" x2="369" y2="273.5" stroke="#172B39" stroke-width="5"/>
<defs>
<filter id="filter0_d" x="86" y="223" width="170" height="122.5" filterUnits="userSpaceOnUse" color-interpolation-filters="sRGB">
<feFlood flood-opacity="0" result="BackgroundImageFix"/>
<feColorMatrix in="SourceAlpha" type="matrix" values="0 0 0 0 0 0 0 0 0 0 0 0 0 0 0 0 0 0 127 0"/>
<feOffset dy="4"/>
<feGaussianBlur stdDeviation="2"/>
<feColorMatrix type="matrix" values="0 0 0 0 0 0 0 0 0 0 0 0 0 0 0 0 0 0 0.25 0"/>
<feBlend mode="normal" in2="BackgroundImageFix" result="effect1_dropShadow"/>
<feBlend mode="normal" in="SourceGraphic" in2="effect1_dropShadow" result="shape"/>
</filter>
<filter id="filter1_d" x="86" y="91" width="169.5" height="122.5" filterUnits="userSpaceOnUse" color-interpolation-filters="sRGB">
<feFlood flood-opacity="0" result="BackgroundImageFix"/>
<feColorMatrix in="SourceAlpha" type="matrix" values="0 0 0 0 0 0 0 0 0 0 0 0 0 0 0 0 0 0 127 0"/>
<feOffset dy="4"/>
<feGaussianBlur stdDeviation="2"/>
<feColorMatrix type="matrix" values="0 0 0 0 0 0 0 0 0 0 0 0 0 0 0 0 0 0 0.25 0"/>
<feBlend mode="normal" in2="BackgroundImageFix" result="effect1_dropShadow"/>
<feBlend mode="normal" in="SourceGraphic" in2="effect1_dropShadow" result="shape"/>
</filter>
<filter id="filter2_d" x="250.217" y="172.592" width="266.789" height="41.792" filterUnits="userSpaceOnUse" color-interpolation-filters="sRGB">
<feFlood flood-opacity="0" result="BackgroundImageFix"/>
<feColorMatrix in="SourceAlpha" type="matrix" values="0 0 0 0 0 0 0 0 0 0 0 0 0 0 0 0 0 0 127 0"/>
<feOffset dy="4"/>
<feGaussianBlur stdDeviation="2"/>
<feColorMatrix type="matrix" values="0 0 0 0 0 0 0 0 0 0 0 0 0 0 0 0 0 0 0.25 0"/>
<feBlend mode="normal" in2="BackgroundImageFix" result="effect1_dropShadow"/>
<feBlend mode="normal" in="SourceGraphic" in2="effect1_dropShadow" result="shape"/>
</filter>
<filter id="filter3_d" x="227.504" y="237.592" width="141.954" height="41.792" filterUnits="userSpaceOnUse" color-interpolation-filters="sRGB">
<feFlood flood-opacity="0" result="BackgroundImageFix"/>
<feColorMatrix in="SourceAlpha" type="matrix" values="0 0 0 0 0 0 0 0 0 0 0 0 0 0 0 0 0 0 127 0"/>
<feOffset dy="4"/>
<feGaussianBlur stdDeviation="2"/>
<feColorMatrix type="matrix" values="0 0 0 0 0 0 0 0 0 0 0 0 0 0 0 0 0 0 0.25 0"/>
<feBlend mode="normal" in2="BackgroundImageFix" result="effect1_dropShadow"/>
<feBlend mode="normal" in="SourceGraphic" in2="effect1_dropShadow" result="shape"/>
</filter>
<filter id="filter4_d" x="250.504" y="303.592" width="254.798" height="41.792" filterUnits="userSpaceOnUse" color-interpolation-filters="sRGB">
<feFlood flood-opacity="0" result="BackgroundImageFix"/>
<feColorMatrix in="SourceAlpha" type="matrix" values="0 0 0 0 0 0 0 0 0 0 0 0 0 0 0 0 0 0 127 0"/>
<feOffset dy="4"/>
<feGaussianBlur stdDeviation="2"/>
<feColorMatrix type="matrix" values="0 0 0 0 0 0 0 0 0 0 0 0 0 0 0 0 0 0 0.25 0"/>
<feBlend mode="normal" in2="BackgroundImageFix" result="effect1_dropShadow"/>
<feBlend mode="normal" in="SourceGraphic" in2="effect1_dropShadow" result="shape"/>
</filter>
<filter id="filter5_d" x="113" y="179.998" width="120" height="100.005" filterUnits="userSpaceOnUse" color-interpolation-filters="sRGB">
<feFlood flood-opacity="0" result="BackgroundImageFix"/>
<feColorMatrix in="SourceAlpha" type="matrix" values="0 0 0 0 0 0 0 0 0 0 0 0 0 0 0 0 0 0 127 0"/>
<feOffset dy="4"/>
<feGaussianBlur stdDeviation="2"/>
<feColorMatrix type="matrix" values="0 0 0 0 0 0 0 0 0 0 0 0 0 0 0 0 0 0 0.25 0"/>
<feBlend mode="normal" in2="BackgroundImageFix" result="effect1_dropShadow"/>
<feBlend mode="normal" in="SourceGraphic" in2="effect1_dropShadow" result="shape"/>
</filter>
</defs>
</svg>
