<svg width="100" height="100" viewBox="0 0 100 100" fill="none" xmlns="http://www.w3.org/2000/svg">
<path d="M50 99.9178C77.6142 99.9178 100 77.5504 100 49.9589C100 22.3674 77.6142 0 50 0C22.3858 0 0 22.3674 0 49.9589C0 77.5504 22.3858 99.9178 50 99.9178Z" fill="white"/>
<path d="M50 0C22.3868 0 0 22.3684 0 49.9589C0 71.1349 13.1687 89.227 31.7695 96.5049C31.3169 92.5576 30.9465 86.472 31.9342 82.1546C32.8395 78.2484 37.7778 57.3191 37.7778 57.3191C37.7778 57.3191 36.2963 54.3174 36.2963 49.9178C36.2963 42.9688 40.3292 37.7878 45.3498 37.7878C49.6296 37.7878 51.6872 40.9951 51.6872 44.8191C51.6872 49.0954 48.9712 55.5099 47.5309 61.472C46.3374 66.4474 50.0412 70.5181 54.9383 70.5181C63.8272 70.5181 70.6584 61.1431 70.6584 47.6563C70.6584 35.6908 62.0576 27.3438 49.7531 27.3438C35.5144 27.3438 27.1605 37.9934 27.1605 49.0132C27.1605 53.2895 28.8066 57.8947 30.8642 60.403C31.2757 60.8964 31.3169 61.3487 31.1934 61.8421C30.823 63.4046 29.9588 66.8174 29.7942 67.5164C29.5885 68.4211 29.0535 68.6266 28.107 68.1743C21.8519 65.2549 17.9424 56.1678 17.9424 48.8076C17.9424 33.0592 29.3827 18.5855 50.9877 18.5855C68.3128 18.5855 81.8107 30.9211 81.8107 47.4507C81.8107 64.6793 70.9465 78.5362 55.8848 78.5362C50.823 78.5362 46.0494 75.9046 44.4444 72.7796C44.4444 72.7796 41.9342 82.3191 41.3169 84.6628C40.2058 89.0214 37.1605 94.449 35.1029 97.7796C39.7942 99.2188 44.7325 100 49.9177 100C77.5309 100 99.9177 77.6316 99.9177 50.0411C100 22.3684 77.6132 0 50 0Z" fill="#E02F2F"/>
</svg>
